<svg width="388" height="299" viewBox="0 0 388 299" fill="none" xmlns="http://www.w3.org/2000/svg">
<path d="M363.653 25.6236C337.038 -1.02914 295.654 -6.69761 263.287 12.5471C243.244 24.4639 219.855 31.312 194.889 31.312C169.922 31.312 145.545 24.1639 125.232 11.7673C92.8656 -7.96726 51.0816 -2.31878 24.2775 24.5039C-13.9712 62.7734 -5.89207 126.636 40.4358 154.548C62.1767 167.665 85.7351 178.052 110.622 185.33V214.512C110.622 261.019 148.301 298.719 194.779 298.719C241.257 298.719 278.936 261.019 278.936 214.512V185.4C303.084 178.362 325.993 168.384 347.205 155.838C393.902 128.235 402.011 63.983 363.663 25.6035L363.643 25.6236H363.653Z" fill="white"/>
</svg>
