<svg width="239" height="173" viewBox="0 0 239 173" fill="none" xmlns="http://www.w3.org/2000/svg">
<path d="M119.294 63.9825C88.8443 63.9825 59.8931 70.4407 33.7082 82.0675C25.7988 85.5766 22.0838 94.734 25.3494 102.752C28.7449 111.07 38.3221 115.008 46.5211 111.359C68.7812 101.462 93.3982 95.9637 119.284 95.9637C145.169 95.9637 169.816 101.462 192.086 111.369C200.285 115.018 209.872 111.08 213.268 102.762C216.533 94.744 212.818 85.5965 204.909 82.0775C178.714 70.4407 149.733 63.9725 119.284 63.9725L119.294 63.9825ZM49.5171 162.026C52.9325 170.423 62.6495 174.362 70.8684 170.563C85.6187 163.755 102.027 159.956 119.294 159.956C136.56 159.956 152.998 163.755 167.749 170.583C175.968 174.382 185.685 170.443 189.11 162.056C192.326 154.158 188.82 145.09 181.091 141.521C162.276 132.834 141.334 127.975 119.294 127.975C97.2531 127.975 76.3311 132.824 57.5263 141.501C49.7967 145.07 46.2914 154.148 49.5071 162.036L49.5171 162.026ZM119.294 0C80.3258 0 43.2355 8.12777 9.60055 22.7838C1.64122 26.2528 -2.09377 35.4503 1.19182 43.4881C4.55731 51.7558 14.0646 55.7247 22.2336 52.1657C51.9937 39.1893 84.8197 31.9912 119.294 31.9912C153.767 31.9912 186.623 39.1993 216.373 52.1757C224.552 55.7447 234.05 51.7758 237.425 43.5081C240.701 35.4603 236.966 26.2628 229.016 22.7938C195.382 8.13777 158.271 0 119.294 0Z" fill="white"/>
</svg>
